<svg width="40" height="40" viewBox="0 0 40 40" fill="none" xmlns="http://www.w3.org/2000/svg">
<path d="M16.1704 26H23.8296V24H16.1704V26ZM23.8296 26C26.6851 26 29 28.3149 29 31.1704H31C31 27.2103 27.7897 24 23.8296 24V26ZM16.1704 24C12.2103 24 9 27.2103 9 31.1704H11C11 28.3149 13.3149 26 16.1704 26V24ZM24 15C24 17.2091 22.2091 19 20 19V21C23.3137 21 26 18.3137 26 15H24ZM20 19C17.7909 19 16 17.2091 16 15H14C14 18.3137 16.6863 21 20 21V19ZM16 15C16 12.7909 17.7909 11 20 11V9C16.6863 9 14 11.6863 14 15H16ZM20 11C22.2091 11 24 12.7909 24 15H26C26 11.6863 23.3137 9 20 9V11ZM34 20C34 27.732 27.732 34 20 34V36C28.8366 36 36 28.8366 36 20H34ZM20 34C12.268 34 6 27.732 6 20H4C4 28.8366 11.1634 36 20 36V34ZM6 20C6 12.268 12.268 6 20 6V4C11.1634 4 4 11.1634 4 20H6ZM20 6C27.732 6 34 12.268 34 20H36C36 11.1634 28.8366 4 20 4V6Z" fill="#8A8A8A"/>
</svg>
