<svg width="40" height="40" viewBox="0 0 40 40" fill="none" xmlns="http://www.w3.org/2000/svg">
<path d="M24 21.6667C24 23.8758 22.2091 25.6667 20 25.6667V27.6667C23.3137 27.6667 26 24.9804 26 21.6667H24ZM20 25.6667C17.7909 25.6667 16 23.8758 16 21.6667H14C14 24.9804 16.6863 27.6667 20 27.6667V25.6667ZM16 21.6667C16 19.4575 17.7909 17.6667 20 17.6667V15.6667C16.6863 15.6667 14 18.353 14 21.6667H16ZM20 17.6667C22.2091 17.6667 24 19.4575 24 21.6667H26C26 18.353 23.3137 15.6667 20 15.6667V17.6667ZM34 15V28.3333H36V15H34ZM31.6667 30.6667H8.33333V32.6667H31.6667V30.6667ZM6 28.3333V15H4V28.3333H6ZM8.33333 12.6667H12.5V10.6667H8.33333V12.6667ZM27.5 12.6667H31.6667V10.6667H27.5V12.6667ZM15.8333 9.33333H24.1667V7.33333H15.8333V9.33333ZM24.8333 10C24.8333 11.4728 26.0272 12.6667 27.5 12.6667V10.6667C27.1318 10.6667 26.8333 10.3682 26.8333 10H24.8333ZM12.5 12.6667C13.9728 12.6667 15.1667 11.4728 15.1667 10H13.1667C13.1667 10.3682 12.8682 10.6667 12.5 10.6667V12.6667ZM26.8333 10C26.8333 8.52724 25.6394 7.33333 24.1667 7.33333V9.33333C24.5349 9.33333 24.8333 9.63181 24.8333 10H26.8333ZM15.1667 10C15.1667 9.63181 15.4651 9.33333 15.8333 9.33333V7.33333C14.3606 7.33333 13.1667 8.52724 13.1667 10H15.1667ZM8.33333 30.6667C7.04467 30.6667 6 29.622 6 28.3333H4C4 30.7266 5.9401 32.6667 8.33333 32.6667V30.6667ZM34 28.3333C34 29.622 32.9553 30.6667 31.6667 30.6667V32.6667C34.0599 32.6667 36 30.7266 36 28.3333H34ZM36 15C36 12.6068 34.0599 10.6667 31.6667 10.6667V12.6667C32.9553 12.6667 34 13.7113 34 15H36ZM6 15C6 13.7113 7.04467 12.6667 8.33333 12.6667V10.6667C5.9401 10.6667 4 12.6068 4 15H6Z" fill="#8A8A8A"/>
</svg>
