<svg xmlns="http://www.w3.org/2000/svg" xmlns:xlink="http://www.w3.org/1999/xlink" viewBox="0 0 286.63 445.46"><defs><style>.cls-1{fill:url(#linear-gradient);}.cls-2{fill:url(#linear-gradient-2);}</style><linearGradient id="linear-gradient" x1="563.33" y1="466.56" x2="563.33" y2="245.96" gradientUnits="userSpaceOnUse"><stop offset="0" stop-color="#0d898c"/><stop offset="0.14" stop-color="#15a09d"/><stop offset="0.36" stop-color="#1fbcb2"/><stop offset="0.57" stop-color="#26d1c1"/><stop offset="0.79" stop-color="#2bddca"/><stop offset="1" stop-color="#2ce1cd"/></linearGradient><linearGradient id="linear-gradient-2" x1="471.68" y1="685.83" x2="471.68" y2="399.2" gradientUnits="userSpaceOnUse"><stop offset="0" stop-color="#0d898c"/><stop offset="0.14" stop-color="#15a09d"/><stop offset="0.36" stop-color="#1fbcb2"/><stop offset="0.57" stop-color="#26d1c1"/><stop offset="0.78" stop-color="#2bddca"/><stop offset="0.99" stop-color="#2ce1cd"/></linearGradient></defs><g id="Layer_2" data-name="Layer 2"><path class="cls-1" d="M511.72,467.71H615q0-46.84-.13-93.7c-.08-28-.06-56-.44-84-.46-34.13-33.6-58-66.23-48-21.83,6.69-36.37,26.49-36.44,50.09-.11,33.33,0,66.65,0,100C511.7,417.28,511.76,442.49,511.72,467.71Z" transform="translate(-328.37 -239.71)"/></g><g id="Layer_1" data-name="Layer 1"><path class="cls-2" d="M615,461.84c0-4-.07-8-.13-12-.46-34.13-33.75-58-66.53-48-21.92,6.69-36.52,26.5-36.6,50.1q0,4.59,0,9.18v-1.26h0q0,31.44,0,62.87c-.09,24.23-11,42.28-32.48,53.28s-46.3,7.33-64.73-8.75c-21.76-19-54.59-17-73.16,4.39A51.47,51.47,0,0,0,346.56,645c36.12,31.16,78.13,44.73,125.42,38.86,58.52-7.26,100.55-38.67,127-91.06,13.12-26,15.93-54,16-82.59q0-24.17,0-48.34Z" transform="translate(-328.37 -239.71)"/></g></svg>